:SAMPLES-PER-SECOND 24
:FULLY-SPECIFIED
:DEGREES
847
root  -15.3753 38.9926 58.8782 177.106 42.1486 173.541
RightUpLeg  -22.0289 -54.0516 -4.04593
RightLeg  31.7299 -5.68617 -4.03239
RightFoot  -11.4985 -0.0795722 -2.04312
RightToes  -1.46215e-006 3.27826e-006 1.63871e-007
Spine  2.10204 4.32029 17.6944
Spine1  13.9086 7.85091 -9.23452
HEad  -25.4919 52.72 -39.1765
LeftShoulder1  1.88818 -3.04828 -22.5135
LeftArm  -37.7255 5.32907 -23.4454
LeftForeArm  -38.8105 -54.0794 -18.072
LeftHand  -0.401393 2.0522 13.8146
RightShoulder  2.22841 4.87291 20.2477
RightArm  12.1911 26.7781 25.3064
RightForeArm  38.6093 -3.11484 15.736
RightHand  -0.633718 -2.24191 -23.111
LeftUpLeg  -1.59308 34.77 20.5389
LeftLeg  37.0351 12.4752 10.2884
LeftFoot  17.7996 0.784853 -3.37871
LeftToes  1.24762e-006 1.46925e-008 1.29056e-009
848
root  -15.8027 39.189 59.2041 177.148 27.4995 175.369
RightUpLeg  -14.2482 -57.8955 -10.0096
RightLeg  30.1715 -7.03672 -4.63928
RightFoot  -9.34683 -0.0547611 -0.491015
RightToes  -1.46215e-006 3.27826e-006 1.63871e-007
Spine  1.49076 4.1757 14.9196
Spine1  13.324 6.85483 -7.60353
HEad  -19.5264 49.1883 -32.5832
LeftShoulder1  1.94319 -3.10748 -23.1201
LeftArm  -38.1284 -5.45658 -26.7683
LeftForeArm  -29.1328 -63.6576 -26.2882
LeftHand  -0.315868 3.022 15.161
RightShoulder  2.55644 5.31614 22.7928
RightArm  16.5231 20.469 29.3706
RightForeArm  39.6019 -2.32709 15.8793
RightHand  -0.592988 -2.65783 -24.8412
LeftUpLeg  0.0719163 42.2307 22.2051
LeftLeg  37.0207 15.6435 12.6597
LeftFoot  15.1175 2.34707 -10.3596
LeftToes  1.24762e-006 1.46925e-008 1.29056e-009
849
root  -16.2629 39.0984 59.3928 176.321 12.8092 176.293
RightUpLeg  -5.42676 -57.2477 -18.6481
RightLeg  31.4961 -9.65114 -6.58102
RightFoot  -7.30569 -0.177245 3.59949
RightToes  -1.46215e-006 3.27826e-006 1.63871e-007
Spine  2.09979 4.13355 11.1983
Spine1  12.164 5.9624 -6.18739
HEad  -13.7716 44.9867 -26.3917
LeftShoulder1  1.98828 -3.22111 -23.3048
LeftArm  -34.5801 -17.3593 -32.8745
LeftForeArm  -14.4292 -70.7624 -38.1605
LeftHand  -0.229116 3.80072 16.1181
RightShoulder  2.84678 5.6929 24.8733
RightArm  21.16 16.676 33.587
RightForeArm  39.4185 -2.39023 16.2993
RightHand  -0.580066 -2.86519 -26.2803
LeftUpLeg  1.64683 46.1385 22.1049
LeftLeg  32.3157 12.8215 8.9959
LeftFoot  6.33426 2.50042 -16.1364
LeftToes  1.24762e-006 1.46925e-008 1.29056e-009
850
root  -16.6213 38.599 59.5916 176.406 -2.45688 178.405
RightUpLeg  -0.804101 -49.2745 -23.0215
RightLeg  37.1395 -9.01843 -7.5357
RightFoot  -5.98059 -0.525666 10.2942
RightToes  -1.46215e-006 3.27826e-006 1.63871e-007
Spine  2.00659 4.20626 8.37357
Spine1  11.8941 4.92628 -3.40218
HEad  -9.54031 40.4812 -21.4246
LeftShoulder1  1.98166 -3.30021 -22.84
LeftArm  -26.8125 -30.3524 -42.3194
LeftForeArm  1.5948 -74.5715 -50.5304
LeftHand  -0.225403 3.90055 16.9259
RightShoulder  3.0196 5.95998 25.8695
RightArm  24.3942 15.6295 38.4919
RightForeArm  39.3474 -3.39145 16.6978
RightHand  -0.483872 -3.35474 -27.1354
LeftUpLeg  -4.23912 45.742 20.5878
LeftLeg  32.2554 2.16211 1.73416
LeftFoot  -0.936755 1.45019 -15.6441
LeftToes  1.24762e-006 1.46925e-008 1.29056e-009
851
root  -16.59 37.9562 59.8172 177.011 -17.6209 -179.39
RightUpLeg  0.109467 -38.5295 -23.2189
RightLeg  44.3173 -1.95655 -2.25349
RightFoot  -4.81865 -0.906217 15.2052
RightToes  -1.46215e-006 3.27826e-006 1.63871e-007
Spine  2.05696 4.725 6.48594
Spine1  12.0053 4.70298 -1.91406
HEad  -7.80087 34.0073 -18.1183
LeftShoulder1  2.03949 -3.51087 -22.7887
LeftArm  -13.0426 -43.5195 -55.1204
LeftForeArm  11.3692 -75.9896 -58.1267
LeftHand  -0.262875 3.7807 18.4454
RightShoulder  3.14125 6.12999 26.5967
RightArm  24.6166 16.2625 42.9437
RightForeArm  40.1503 -4.28962 16.756
RightHand  -0.49111 -3.38671 -27.9658
LeftUpLeg  -16.3885 39.4276 16.1707
LeftLeg  37.903 -3.59075 -2.61699
LeftFoot  -2.54614 0.979731 -12.5261
LeftToes  1.24762e-006 1.46925e-008 1.29056e-009
852
root  -16.3114 37.4421 59.9294 177.513 -30.5382 -177.872
RightUpLeg  0.743595 -28.7944 -22.7959
RightLeg  48.8043 5.40975 6.26666
RightFoot  -4.01187 -0.887093 13.365
RightToes  -1.46215e-006 3.27826e-006 1.63871e-007
Spine  3.90377 5.61213 7.03711
Spine1  11.0043 6.03529 -4.07819
HEad  -6.90891 26.1563 -15.7784
LeftShoulder1  2.18352 -3.85516 -23.4199
LeftArm  5.28669 -51.3623 -70.2107
LeftForeArm  19.1486 -76.869 -64.9454
LeftHand  -0.264855 3.80878 18.9567
RightShoulder  3.31254 6.38444 27.5214
RightArm  30.2422 18.5947 47.0847
RightForeArm  34.3623 -2.81172 17.5526
RightHand  -0.506222 -3.41851 -29.2926
LeftUpLeg  -25.2145 32.5859 11.9172
LeftLeg  40.4712 -5.18999 -4.31803
LeftFoot  -3.0157 0.747217 -10.0003
LeftToes  1.24762e-006 1.46925e-008 1.29056e-009
853
root  -16.023 37.2454 59.8382 177.546 -40.9323 -176.042
RightUpLeg  3.57456 -21.7394 -21.9328
RightLeg  45.3859 5.41634 5.68151
RightFoot  -5.38305 -0.452386 7.87671
RightToes  -1.46215e-006 3.27826e-006 1.63871e-007
Spine  6.18792 6.27902 9.09978
Spine1  8.72237 7.47316 -6.07336
HEad  -5.97183 19.4661 -14.3551
LeftShoulder1  2.32833 -4.12104 -24.3311
LeftArm  20.5096 -52.7352 -81.5247
LeftForeArm  33.2022 -77.8265 -77.015
LeftHand  -0.282244 3.61666 18.0372
RightShoulder  3.34829 6.68936 26.8463
RightArm  43.77 22.5398 52.4656
RightForeArm  23.4129 1.04628 18.4787
RightHand  -0.468766 -3.59722 -29.8111
LeftUpLeg  -29.809 26.6036 9.59237
LeftLeg  39.048 -7.21047 -5.8327
LeftFoot  -3.0888 0.5966 -8.02135
LeftToes  1.24762e-006 1.46925e-008 1.29056e-009
854
root  -15.7017 37.1925 59.6012 177.299 -49.9635 -173.968
RightUpLeg  8.40599 -18.3264 -20.9995
RightLeg  34.8571 -2.40107 -1.85246
RightFoot  -5.63198 -0.104964 1.67575
RightToes  -1.46215e-006 3.27826e-006 1.63871e-007
Spine  7.26601 6.7025 10.4565
Spine1  6.61291 8.1762 -5.89064
HEad  -5.91012 14.0784 -13.6988
LeftShoulder1  2.42147 -4.34131 -24.6785
LeftArm  31.199 -51.5487 -87.8497
LeftForeArm  52.983 -78.1837 -94.1093
LeftHand  -0.254485 3.74098 17.4022
RightShoulder  3.08636 6.80451 23.7923
RightArm  51.8689 27.1343 58.5149
RightForeArm  19.412 2.99245 18.5328
RightHand  -0.537485 -3.2209 -28.3273
LeftUpLeg  -33.5874 20.675 8.76334
LeftLeg  37.8876 -9.52117 -7.4919
LeftFoot  -1.32888 0.653632 -7.35667
LeftToes  1.24762e-006 1.46925e-008 1.29056e-009
855
root  -15.2549 37.0735 59.2776 177.168 -57.81 -172.493
RightUpLeg  13.4615 -15.6446 -20.3368
RightLeg  23.2986 -5.97077 -3.04384
RightFoot  -3.08437 -0.273707 3.30717
RightToes  -1.46215e-006 3.27826e-006 1.63871e-007
Spine  7.35357 6.91616 11.4799
Spine1  5.60077 8.71044 -6.41045
HEad  -6.23544 9.28074 -12.6474
LeftShoulder1  2.42164 -4.47398 -24.1428
LeftArm  38.9438 -50.2589 -90.5827
LeftForeArm  68.0833 -77.6095 -108.543
LeftHand  -0.154746 4.3919 16.9134
RightShoulder  2.7423 6.70792 20.507
RightArm  52.3439 31.861 63.2052
RightForeArm  18.4471 2.66591 18.5215
RightHand  -0.613994 -2.61284 -25.405
LeftUpLeg  -37.0485 16.8603 7.65305
LeftLeg  37.2845 -12.1414 -9.39161
LeftFoot  0.836372 0.793054 -7.47459
LeftToes  1.24762e-006 1.46925e-008 1.29056e-009
856
root  -14.6559 36.7734 58.9098 176.845 -64.1653 -171.284
RightUpLeg  17.6702 -10.9453 -18.7988
RightLeg  15.5326 -1.55512 -0.627247
RightFoot  -3.21902 -1.04011 14.2703
RightToes  -1.46215e-006 3.27826e-006 1.63871e-007
Spine  7.05561 6.89545 12.8291
Spine1  5.03857 9.21303 -8.39535
HEad  -5.56721 5.54699 -10.7286
LeftShoulder1  2.34543 -4.49246 -23.0647
LeftArm  44.1469 -49.0983 -91.0321
LeftForeArm  75.8407 -77.0559 -115.346
LeftHand  -0.169948 4.2213 15.9463
RightShoulder  2.54543 6.56588 18.8106
RightArm  50.8953 37.2149 65.547
RightForeArm  17.3347 5.96067 17.1028
RightHand  -0.438694 -3.01425 -21.0678
LeftUpLeg  -40.0431 13.6954 6.73921
LeftLeg  36.8274 -14.1831 -10.7973
LeftFoot  2.47767 0.894371 -7.49828
LeftToes  1.24762e-006 1.46925e-008 1.29056e-009
857
root  -13.8937 36.2541 58.5148 176.952 -69.0743 -170.918
RightUpLeg  21.1151 -7.48431 -17.0181
RightLeg  11.4897 2.55635 0.332323
RightFoot  -8.39046 -0.635703 21.9281
RightToes  -1.46215e-006 3.27826e-006 1.63871e-007
Spine  6.1642 6.92563 13.0241
Spine1  5.18752 9.38985 -9.28573
HEad  -4.09697 2.85747 -9.11074
LeftShoulder1  2.28758 -4.54944 -22.0848
LeftArm  47.1168 -48.0031 -89.689
LeftForeArm  83.8212 -76.7834 -119.139
LeftHand  -0.161943 4.1646 14.1681
RightShoulder  2.37286 6.25359 17.7693
RightArm  54.0252 43.5861 66.5436
RightForeArm  12.6788 12.322 13.4888
RightHand  -0.197641 -3.86819 -14.2663
LeftUpLeg  -43.2119 9.33112 6.92007
LeftLeg  37.5367 -14.3667 -11.216
LeftFoot  3.69328 1.06528 -8.23214
LeftToes  1.24762e-006 1.46925e-008 1.29056e-009
858
root  -13.0488 35.7 58.128 178.403 -72.1894 -172.434
RightUpLeg  23.8466 -7.41748 -16.6804
RightLeg  8.4574 4.33359 0.688058
RightFoot  -14.9152 0.628335 23.3433
RightToes  -1.46215e-006 3.27826e-006 1.63871e-007
Spine  4.74284 7.24166 12.3032
Spine1  6.49794 9.55752 -8.69449
HEad  -1.78623 0.667308 -8.80971
LeftShoulder1  2.35696 -4.61493 -22.7486
LeftArm  47.5454 -46.6025 -84.8492
LeftForeArm  90.2533 -76.578 -121.911
LeftHand  -0.0929004 4.59043 11.0305
RightShoulder  2.14584 5.78145 16.4538
RightArm  57.2614 50.3111 66.8875
RightForeArm  4.64654 19.9028 7.12389
RightHand  -0.143266 -3.21559 -7.28192
LeftUpLeg  -45.5923 6.47126 7.06242
LeftLeg  38.1604 -14.2482 -11.374
LeftFoot  4.53869 1.35703 -9.91098
LeftToes  1.24762e-006 1.46925e-008 1.29056e-009
